<svg width="14" height="12" fill="none" xmlns="http://www.w3.org/2000/svg"><g clip-path="url(#clip0)" fill="#fff"><path d="M3.374 7.179h9.618c.557 0 1.008-.484 1.008-1.08 0-.595-.451-1.078-1.008-1.078H3.374c-.557 0-1.009.482-1.009 1.079 0 .595.452 1.079 1.009 1.079z"/><path d="M1.721 6.771l4.607-4.93a1.133 1.133 0 000-1.525.962.962 0 00-1.426 0L.295 5.246a1.133 1.133 0 000 1.525.962.962 0 001.426 0z"/><path d="M.295 6.755l4.607 4.93a.962.962 0 001.426 0 1.133 1.133 0 000-1.527L1.721 5.23a.962.962 0 00-1.426 0 1.133 1.133 0 000 1.526z"/></g><defs><clipPath id="clip0"><path fill="#fff" transform="matrix(-1 0 0 1 14 0)" d="M0 0h14v12H0z"/></clipPath></defs></svg>