<svg width="14" height="12" fill="none" xmlns="http://www.w3.org/2000/svg"><g clip-path="url(#clip0)" fill="#fff"><path d="M10.626 7.179H1.008C.451 7.179 0 6.695 0 6.099c0-.595.451-1.078 1.008-1.078h9.618c.557 0 1.009.482 1.009 1.079 0 .595-.452 1.079-1.009 1.079z"/><path d="M12.279 6.771l-4.607-4.93a1.133 1.133 0 010-1.525.962.962 0 011.426 0l4.607 4.93a1.133 1.133 0 010 1.525.962.962 0 01-1.426 0z"/><path d="M13.705 6.755l-4.607 4.93a.962.962 0 01-1.426 0 1.133 1.133 0 010-1.527l4.607-4.929a.962.962 0 011.426 0 1.133 1.133 0 010 1.526z"/></g><defs><clipPath id="clip0"><path fill="#fff" d="M0 0h14v12H0z"/></clipPath></defs></svg>