<svg width="14" height="12" viewBox="0 0 14 12" fill="none" xmlns="http://www.w3.org/2000/svg">
<g clip-path="url(#clip0)">
<path d="M3.3736 7.17853H12.9917C13.5488 7.17853 14 6.69518 14 6.09964C14 5.5041 13.5488 5.02075 12.9917 5.02075H3.3736C2.817 5.02075 2.36526 5.50349 2.36526 6.09964C2.36583 6.69518 2.817 7.17853 3.3736 7.17853Z" fill="white"/>
<path d="M1.72137 6.77102L6.32833 1.84172C6.72226 1.42023 6.72226 0.737362 6.32833 0.315873C5.93441 -0.105616 5.29619 -0.105616 4.90226 0.315873L0.295299 5.24517C-0.0986285 5.66666 -0.0986285 6.34953 0.295299 6.77102C0.689226 7.19251 1.32744 7.19251 1.72137 6.77102Z" fill="white"/>
<path d="M0.295299 6.75481L4.90226 11.6841C5.29619 12.1056 5.93441 12.1056 6.32833 11.6841C6.72226 11.2626 6.72226 10.5797 6.32833 10.1583L1.72137 5.22896C1.32744 4.80747 0.689226 4.80747 0.295299 5.22896C-0.0986285 5.65045 -0.0986285 6.33332 0.295299 6.75481Z" fill="white"/>
</g>
<defs>
<clipPath id="clip0">
<rect width="14" height="12" fill="white" transform="matrix(-1 0 0 1 14 0)"/>
</clipPath>
</defs>
</svg>
