<svg width="14" height="12" viewBox="0 0 14 12" fill="none" xmlns="http://www.w3.org/2000/svg">
<g clip-path="url(#clip0)">
<path d="M10.6264 7.17853H1.00834C0.451174 7.17853 0 6.69518 0 6.09964C0 5.5041 0.451174 5.02075 1.00834 5.02075H10.6264C11.183 5.02075 11.6347 5.50349 11.6347 6.09964C11.6342 6.69518 11.183 7.17853 10.6264 7.17853Z" fill="white"/>
<path d="M12.2786 6.77102L7.67167 1.84172C7.27774 1.42023 7.27774 0.737362 7.67167 0.315873C8.06559 -0.105616 8.70381 -0.105616 9.09774 0.315873L13.7047 5.24517C14.0986 5.66666 14.0986 6.34953 13.7047 6.77102C13.3108 7.19251 12.6726 7.19251 12.2786 6.77102Z" fill="white"/>
<path d="M13.7047 6.75481L9.09774 11.6841C8.70381 12.1056 8.06559 12.1056 7.67167 11.6841C7.27774 11.2626 7.27774 10.5797 7.67167 10.1583L12.2786 5.22896C12.6726 4.80747 13.3108 4.80747 13.7047 5.22896C14.0986 5.65045 14.0986 6.33332 13.7047 6.75481Z" fill="white"/>
</g>
<defs>
<clipPath id="clip0">
<rect width="14" height="12" fill="white"/>
</clipPath>
</defs>
</svg>
